SplineFontDB: 3.2
FontName: SgeBlock8
FullName: SgeBlock8
FamilyName: SgeBlock8
Weight: Regular
Copyright: Copyright (c) 2026, Chris Roode
UComments: "2026-4-9: Created with FontForge (http://fontforge.org)"
Version: 001.000
ItalicAngle: 0
UnderlinePosition: 0
UnderlineWidth: 0
Ascent: 7
Descent: 2
InvalidEm: 0
LayerCount: 2
Layer: 0 0 "Back" 1
Layer: 1 0 "Fore" 0
XUID: [1021 209 1173744641 2240063]
OS2Version: 0
OS2_WeightWidthSlopeOnly: 0
OS2_UseTypoMetrics: 1
CreationTime: 1775780727
ModificationTime: 1775821988
OS2TypoAscent: 0
OS2TypoAOffset: 1
OS2TypoDescent: 0
OS2TypoDOffset: 1
OS2TypoLinegap: 0
OS2WinAscent: 0
OS2WinAOffset: 1
OS2WinDescent: 0
OS2WinDOffset: 1
HheadAscent: 0
HheadAOffset: 1
HheadDescent: 0
HheadDOffset: 1
OS2Vendor: 'PfEd'
MarkAttachClasses: 1
DEI: 91125
Encoding: ISO8859-1
UnicodeInterp: none
NameList: AGL For New Fonts
DisplaySize: -48
AntiAlias: 1
FitToEm: 0
WinInfo: 0 25 10
BeginPrivate: 0
EndPrivate
BeginChars: 256 94

StartChar: A
Encoding: 65 65 0
Width: 8
VWidth: 8
Flags: H
LayerCount: 2
Fore
SplineSet
2 3 m 1
 5 3 l 1
 5 5 l 25
 4 5 l 25
 4 6 l 25
 3 6 l 25
 3 5 l 1
 2 5 l 29
 2 3 l 1
0 0 m 1
 0 5 l 25
 1 5 l 25
 1 6 l 25
 2 6 l 25
 2 7 l 25
 5 7 l 25
 5 6 l 25
 6 6 l 25
 6 5 l 25
 7 5 l 25
 7 0 l 1
 5 0 l 25
 5 2 l 25
 2 2 l 25
 2 0 l 25
 0 0 l 1
EndSplineSet
EndChar

StartChar: B
Encoding: 66 66 1
Width: 8
VWidth: 8
Flags: H
LayerCount: 2
Fore
SplineSet
5 4 m 29
 5 6 l 25
 2 6 l 25
 2 4 l 25
 5 4 l 29
5 1 m 25
 5 3 l 25
 2 3 l 25
 2 1 l 25
 5 1 l 25
0 0 m 25
 0 7 l 25
 6 7 l 25
 6 6 l 25
 7 6 l 25
 7 4 l 25
 6 4 l 25
 6 3 l 25
 7 3 l 25
 7 1 l 25
 6 1 l 25
 6 0 l 25
 0 0 l 25
EndSplineSet
Validated: 1
EndChar

StartChar: C
Encoding: 67 67 2
Width: 8
VWidth: 8
Flags: H
LayerCount: 2
Fore
SplineSet
2 0 m 25
 2 1 l 25
 1 1 l 25
 1 2 l 25
 0 2 l 25
 0 5 l 25
 1 5 l 25
 1 6 l 25
 2 6 l 25
 2 7 l 1
 6 7 l 29
 6 6 l 29
 7 6 l 29
 7 5 l 29
 5 5 l 29
 5 6 l 29
 3 6 l 1
 3 5 l 25
 2 5 l 25
 2 2 l 25
 3 2 l 25
 3 1 l 25
 5 1 l 25
 5 2 l 25
 7 2 l 25
 7 1 l 25
 6 1 l 25
 6 0 l 25
 2 0 l 25
EndSplineSet
Validated: 1
EndChar

StartChar: D
Encoding: 68 68 3
Width: 8
VWidth: 8
Flags: H
LayerCount: 2
Fore
SplineSet
4 1 m 29
 4 2 l 25
 5 2 l 25
 5 5 l 25
 4 5 l 25
 4 6 l 25
 2 6 l 25
 2 1 l 25
 4 1 l 29
0 0 m 25
 0 7 l 25
 5 7 l 25
 5 6 l 25
 6 6 l 25
 6 5 l 25
 7 5 l 25
 7 2 l 25
 6 2 l 25
 6 1 l 25
 5 1 l 25
 5 0 l 25
 0 0 l 25
EndSplineSet
Validated: 1
EndChar

StartChar: E
Encoding: 69 69 4
Width: 8
VWidth: 8
Flags: H
LayerCount: 2
Fore
SplineSet
7 7 m 29
 7 6 l 25
 2 6 l 25
 2 4 l 25
 4 4 l 25
 4 3 l 25
 2 3 l 25
 2 1 l 25
 7 1 l 25
 7 0 l 25
 0 0 l 25
 0 7 l 25
 7 7 l 29
EndSplineSet
Validated: 1
EndChar

StartChar: F
Encoding: 70 70 5
Width: 8
VWidth: 8
Flags: H
LayerCount: 2
Fore
SplineSet
7 7 m 29
 7 6 l 25
 2 6 l 25
 2 4 l 25
 4 4 l 25
 4 3 l 25
 2 3 l 25
 2 0 l 25
 0 0 l 25
 0 7 l 25
 7 7 l 29
EndSplineSet
Validated: 1
EndChar

StartChar: G
Encoding: 71 71 6
Width: 8
VWidth: 8
Flags: H
LayerCount: 2
Fore
SplineSet
7 7 m 1
 7 6 l 25
 3 6 l 25
 3 5 l 25
 2 5 l 25
 2 2 l 25
 3 2 l 25
 3 1 l 25
 5 1 l 25
 5 3 l 25
 4 3 l 25
 4 4 l 25
 7 4 l 25
 7 0 l 25
 2 0 l 25
 2 1 l 25
 1 1 l 25
 1 2 l 25
 0 2 l 1
 0 5 l 1
 1 5 l 1
 1 6 l 1
 2 6 l 1
 2 7 l 5
 7 7 l 1
EndSplineSet
Validated: 1
EndChar

StartChar: H
Encoding: 72 72 7
Width: 8
VWidth: 8
Flags: H
LayerCount: 2
Fore
SplineSet
0 7 m 29
 2 7 l 25
 2 4 l 25
 5 4 l 25
 5 7 l 25
 7 7 l 25
 7 0 l 25
 5 0 l 25
 5 3 l 25
 2 3 l 25
 2 0 l 25
 0 0 l 25
 0 7 l 29
EndSplineSet
Validated: 1
EndChar

StartChar: I
Encoding: 73 73 8
Width: 8
VWidth: 8
Flags: H
LayerCount: 2
Fore
SplineSet
1 7 m 25
 7 7 l 1
 7 6 l 1
 5 6 l 25
 5 1 l 25
 7 1 l 1
 7 0 l 1
 1 0 l 25
 1 1 l 25
 3 1 l 1
 3 6 l 1
 1 6 l 25
 1 7 l 25
EndSplineSet
Validated: 1
EndChar

StartChar: J
Encoding: 74 74 9
Width: 8
VWidth: 8
Flags: H
LayerCount: 2
Fore
SplineSet
7 7 m 29
 7 1 l 25
 6 1 l 25
 6 0 l 25
 1 0 l 25
 1 1 l 25
 0 1 l 25
 0 3 l 25
 2 3 l 25
 2 1 l 25
 5 1 l 25
 5 6 l 25
 3 6 l 25
 3 7 l 25
 7 7 l 29
EndSplineSet
Validated: 1
EndChar

StartChar: K
Encoding: 75 75 10
Width: 8
VWidth: 8
Flags: H
LayerCount: 2
Fore
SplineSet
0 7 m 25
 2 7 l 25
 2 4 l 25
 3 4 l 25
 3 5 l 25
 4 5 l 25
 4 6 l 25
 5 6 l 25
 5 7 l 25
 7 7 l 25
 7 6 l 25
 6 6 l 25
 6 5 l 25
 5 5 l 25
 5 4 l 25
 4 4 l 25
 4 3 l 25
 5 3 l 25
 5 2 l 25
 6 2 l 25
 6 1 l 25
 7 1 l 25
 7 0 l 1
 4 0 l 5
 4 1 l 1
 3 1 l 1
 3 2 l 1
 2 2 l 1
 2 0 l 25
 0 0 l 25
 0 7 l 25
EndSplineSet
Validated: 1
EndChar

StartChar: L
Encoding: 76 76 11
Width: 8
VWidth: 8
Flags: H
LayerCount: 2
Fore
SplineSet
0 7 m 29
 2 7 l 25
 2 1 l 25
 7 1 l 25
 7 0 l 25
 0 0 l 25
 0 7 l 29
EndSplineSet
Validated: 1
EndChar

StartChar: M
Encoding: 77 77 12
Width: 8
VWidth: 8
Flags: H
LayerCount: 2
Fore
SplineSet
0 7 m 29
 2 7 l 29
 2 6 l 29
 3 6 l 29
 3 5 l 29
 4 5 l 29
 4 6 l 29
 5 6 l 29
 5 7 l 29
 7 7 l 29
 7 0 l 29
 5 0 l 29
 5 3 l 29
 4 3 l 29
 4 2 l 29
 3 2 l 29
 3 3 l 29
 2 3 l 29
 2 0 l 29
 0 0 l 29
 0 7 l 29
EndSplineSet
Validated: 1
EndChar

StartChar: N
Encoding: 78 78 13
Width: 8
VWidth: 8
Flags: H
LayerCount: 2
Fore
SplineSet
0 7 m 29
 2 7 l 25
 2 6 l 25
 3 6 l 25
 3 5 l 25
 4 5 l 25
 4 4 l 25
 5 4 l 25
 5 7 l 25
 7 7 l 25
 7 0 l 25
 5 0 l 25
 5 1 l 25
 4 1 l 25
 4 2 l 25
 3 2 l 25
 3 3 l 25
 2 3 l 25
 2 0 l 25
 0 0 l 25
 0 7 l 29
EndSplineSet
Validated: 1
EndChar

StartChar: O
Encoding: 79 79 14
Width: 8
VWidth: 8
Flags: H
LayerCount: 2
Fore
SplineSet
5 6 m 29
 2 6 l 25
 2 1 l 25
 5 1 l 25
 5 6 l 29
1 7 m 25
 6 7 l 25
 6 6 l 25
 7 6 l 25
 7 1 l 25
 6 1 l 25
 6 0 l 25
 1 0 l 25
 1 1 l 25
 0 1 l 25
 0 6 l 25
 1 6 l 25
 1 7 l 25
EndSplineSet
Validated: 1
EndChar

StartChar: P
Encoding: 80 80 15
Width: 8
VWidth: 8
Flags: H
LayerCount: 2
Fore
SplineSet
5 3 m 1
 5 6 l 1
 2 6 l 1
 2 3 l 1
 5 3 l 1
0 0 m 25
 0 7 l 25
 6 7 l 25
 6 6 l 25
 7 6 l 1
 7 3 l 1
 6 3 l 1
 6 2 l 1
 2 2 l 1
 2 0 l 1
 0 0 l 25
EndSplineSet
Validated: 1
EndChar

StartChar: Q
Encoding: 81 81 16
Width: 8
VWidth: 8
Flags: H
LayerCount: 2
Fore
SplineSet
6 1 m 29
 7 1 l 25
 7 0 l 25
 6 0 l 25
 6 1 l 29
2 6 m 25
 2 1 l 25
 4 1 l 25
 4 2 l 25
 3 2 l 25
 3 3 l 25
 5 3 l 25
 5 6 l 25
 2 6 l 25
0 6 m 25
 1 6 l 25
 1 7 l 25
 6 7 l 25
 6 6 l 25
 7 6 l 25
 7 2 l 25
 6 2 l 25
 6 1 l 25
 5 1 l 25
 5 0 l 25
 1 0 l 25
 1 1 l 25
 0 1 l 25
 0 6 l 25
EndSplineSet
Validated: 5
EndChar

StartChar: R
Encoding: 82 82 17
Width: 8
VWidth: 8
Flags: H
LayerCount: 2
Fore
SplineSet
2 6 m 29
 2 3 l 25
 4 3 l 25
 4 4 l 25
 5 4 l 25
 5 6 l 25
 2 6 l 29
0 0 m 25
 0 7 l 25
 6 7 l 25
 6 6 l 25
 7 6 l 25
 7 3 l 25
 5 3 l 25
 5 2 l 25
 6 2 l 25
 6 1 l 25
 7 1 l 25
 7 0 l 25
 4 0 l 25
 4 1 l 25
 3 1 l 25
 3 2 l 25
 2 2 l 25
 2 0 l 25
 0 0 l 25
EndSplineSet
Validated: 1
EndChar

StartChar: S
Encoding: 83 83 18
Width: 8
VWidth: 8
Flags: H
LayerCount: 2
Fore
SplineSet
0 6 m 29
 1 6 l 25
 1 7 l 25
 5 7 l 25
 5 6 l 25
 6 6 l 25
 6 5 l 25
 4 5 l 25
 4 6 l 25
 2 6 l 25
 2 4 l 25
 6 4 l 25
 6 3 l 25
 7 3 l 25
 7 1 l 25
 6 1 l 25
 6 0 l 25
 1 0 l 25
 1 1 l 25
 0 1 l 25
 0 2 l 25
 2 2 l 25
 2 1 l 25
 5 1 l 25
 5 3 l 25
 1 3 l 25
 1 4 l 25
 0 4 l 25
 0 6 l 29
EndSplineSet
Validated: 1
EndChar

StartChar: T
Encoding: 84 84 19
Width: 8
VWidth: 8
Flags: H
LayerCount: 2
Fore
SplineSet
1 7 m 29
 7 7 l 25
 7 6 l 25
 5 6 l 25
 5 0 l 25
 3 0 l 25
 3 6 l 25
 1 6 l 25
 1 7 l 29
EndSplineSet
Validated: 1
EndChar

StartChar: U
Encoding: 85 85 20
Width: 8
VWidth: 8
Flags: H
LayerCount: 2
Fore
SplineSet
0 7 m 29
 2 7 l 25
 2 1 l 25
 5 1 l 25
 5 7 l 25
 7 7 l 25
 7 1 l 25
 6 1 l 25
 6 0 l 25
 1 0 l 25
 1 1 l 25
 0 1 l 25
 0 7 l 29
EndSplineSet
Validated: 1
EndChar

StartChar: V
Encoding: 86 86 21
Width: 8
VWidth: 8
Flags: HW
LayerCount: 2
Fore
SplineSet
0 7 m 1
 2 7 l 1
 2 3 l 25
 3 3 l 1
 3 2 l 1
 4 2 l 1
 4 3 l 1
 5 3 l 25
 5 7 l 1
 7 7 l 1
 7 3 l 25
 6 3 l 25
 6 2 l 25
 5 2 l 25
 5 1 l 25
 4 1 l 25
 4 0 l 25
 3 0 l 25
 3 1 l 25
 2 1 l 25
 2 2 l 25
 1 2 l 25
 1 3 l 25
 0 3 l 25
 0 7 l 1
EndSplineSet
Validated: 1
EndChar

StartChar: W
Encoding: 87 87 22
Width: 8
VWidth: 8
Flags: HW
LayerCount: 2
Fore
SplineSet
0 0 m 29
 0 7 l 5
 2 7 l 29
 2 4 l 29
 3 4 l 29
 3 5 l 29
 4 5 l 29
 4 4 l 29
 5 4 l 29
 5 7 l 29
 7 7 l 29
 7 0 l 29
 5 0 l 29
 5 1 l 29
 4 1 l 29
 4 2 l 29
 3 2 l 29
 3 1 l 29
 2 1 l 29
 2 0 l 5
 0 0 l 29
EndSplineSet
Validated: 1
EndChar

StartChar: X
Encoding: 88 88 23
Width: 8
VWidth: 8
Flags: H
LayerCount: 2
Fore
SplineSet
0 7 m 29
 2 7 l 25
 2 6 l 25
 3 6 l 25
 3 5 l 25
 4 5 l 25
 4 6 l 25
 5 6 l 25
 5 7 l 25
 7 7 l 25
 7 5 l 25
 6 5 l 25
 6 4 l 25
 5 4 l 25
 5 3 l 25
 6 3 l 25
 6 2 l 25
 7 2 l 25
 7 0 l 25
 5 0 l 25
 5 1 l 25
 4 1 l 25
 4 2 l 25
 3 2 l 25
 3 1 l 25
 2 1 l 25
 2 0 l 25
 0 0 l 25
 0 2 l 25
 1 2 l 25
 1 3 l 25
 2 3 l 25
 2 4 l 25
 1 4 l 25
 1 5 l 25
 0 5 l 25
 0 7 l 29
EndSplineSet
Validated: 1
EndChar

StartChar: Y
Encoding: 89 89 24
Width: 8
VWidth: 8
Flags: H
LayerCount: 2
Fore
SplineSet
1 7 m 25
 3 7 l 1
 3 4 l 5
 5 4 l 1
 5 7 l 1
 7 7 l 25
 7 4 l 25
 6 4 l 25
 6 3 l 25
 5 3 l 25
 5 0 l 25
 3 0 l 25
 3 3 l 25
 2 3 l 25
 2 4 l 25
 1 4 l 25
 1 7 l 25
EndSplineSet
Validated: 1
EndChar

StartChar: Z
Encoding: 90 90 25
Width: 8
VWidth: 8
Flags: H
LayerCount: 2
Fore
SplineSet
0 7 m 29
 7 7 l 25
 7 5 l 25
 6 5 l 25
 6 4 l 25
 5 4 l 25
 5 3 l 25
 4 3 l 25
 4 2 l 25
 3 2 l 25
 3 1 l 25
 7 1 l 25
 7 0 l 25
 0 0 l 25
 0 2 l 25
 1 2 l 25
 1 3 l 25
 2 3 l 25
 2 4 l 25
 3 4 l 25
 3 5 l 25
 4 5 l 25
 4 6 l 25
 0 6 l 25
 0 7 l 29
EndSplineSet
Validated: 1
EndChar

StartChar: bracketleft
Encoding: 91 91 26
Width: 8
VWidth: 8
Flags: H
LayerCount: 2
Fore
SplineSet
6 7 m 29
 6 6 l 25
 4 6 l 25
 4 1 l 25
 6 1 l 25
 6 0 l 25
 2 0 l 25
 2 7 l 25
 6 7 l 29
EndSplineSet
Validated: 1
EndChar

StartChar: backslash
Encoding: 92 92 27
Width: 8
VWidth: 8
Flags: H
LayerCount: 2
Fore
SplineSet
2 7 m 29
 7 0 l 25
 5 0 l 25
 0 7 l 25
 2 7 l 29
EndSplineSet
Validated: 1
EndChar

StartChar: bracketright
Encoding: 93 93 28
Width: 8
VWidth: 8
Flags: H
LayerCount: 2
Fore
SplineSet
2 7 m 29
 6 7 l 25
 6 0 l 25
 2 0 l 25
 2 1 l 25
 4 1 l 25
 4 6 l 25
 2 6 l 25
 2 7 l 29
EndSplineSet
Validated: 1
EndChar

StartChar: asciicircum
Encoding: 94 94 29
Width: 8
VWidth: 8
Flags: H
LayerCount: 2
Fore
SplineSet
1 4 m 25
 1 5 l 25
 2 5 l 25
 2 6 l 25
 3 6 l 25
 3 7 l 25
 5 7 l 25
 5 6 l 25
 6 6 l 25
 6 5 l 25
 7 5 l 25
 7 4 l 25
 5 4 l 25
 5 5 l 25
 3 5 l 25
 3 4 l 25
 1 4 l 25
EndSplineSet
Validated: 1
EndChar

StartChar: underscore
Encoding: 95 95 30
Width: 8
VWidth: 8
Flags: H
LayerCount: 2
Fore
SplineSet
0 0 m 29
 0 1 l 25
 7 1 l 25
 7 0 l 25
 0 0 l 29
EndSplineSet
Validated: 1
EndChar

StartChar: grave
Encoding: 96 96 31
Width: 8
VWidth: 8
Flags: H
LayerCount: 2
Fore
SplineSet
6 5 m 1
 6 4 l 1
 4 4 l 1
 4 5 l 1
 6 5 l 1
2 7 m 1
 4 7 l 1
 4 5 l 1
 2 5 l 1
 2 7 l 1
EndSplineSet
Validated: 5
EndChar

StartChar: a
Encoding: 97 97 32
Width: 8
VWidth: 8
Flags: HW
LayerCount: 2
Fore
SplineSet
5 3 m 1
 2 3 l 1
 2 1 l 1
 5 1 l 1
 5 1 l 5
 5 1 l 1
 5 3 l 1
1 0 m 1
 1 0 l 1
 1 1 l 1
 0 1 l 25
 0 3 l 25
 1 3 l 25
 1 4 l 25
 5 4 l 25
 5 5 l 25
 1 5 l 25
 1 6 l 25
 6 6 l 25
 6 5 l 25
 7 5 l 1
 7 0 l 1
 1 0 l 1
 1 0 l 1
 1 0 l 1
 1 0 l 1
EndSplineSet
EndChar

StartChar: b
Encoding: 98 98 33
Width: 8
VWidth: 8
Flags: HW
LayerCount: 2
Fore
SplineSet
5 4 m 29
 2 4 l 29
 2 1 l 5
 5 1 l 5
 5 4 l 29
0 0 m 29
 0 7 l 29
 2 7 l 5
 2 5 l 29
 6 5 l 29
 6 4 l 29
 7 4 l 29
 7 1 l 5
 6 1 l 29
 6 0 l 29
 0 0 l 29
EndSplineSet
EndChar

StartChar: c
Encoding: 99 99 34
Width: 8
VWidth: 8
Flags: HW
LayerCount: 2
Fore
SplineSet
5 1 m 5
 5 2 l 25
 7 2 l 25
 7 1 l 25
 6 1 l 25
 6 0 l 1
 3 0 l 1
 2 0 l 1
 2 1 l 1
 1 1 l 1
 1 5 l 1
 1 5 l 1
 2 5 l 1
 2 6 l 1
 6 6 l 1
 6 5 l 25
 7 5 l 25
 7 4 l 25
 5 4 l 25
 5 5 l 1
 3 5 l 25
 3 1 l 29
 5 1 l 5
EndSplineSet
EndChar

StartChar: d
Encoding: 100 100 35
Width: 8
VWidth: 8
Flags: HW
LayerCount: 2
Fore
SplineSet
2 4 m 25
 2 1 l 1
 5 1 l 1
 5 4 l 25
 2 4 l 25
7 0 m 25
 1 0 l 25
 1 1 l 25
 0 1 l 1
 0 4 l 25
 1 4 l 25
 1 5 l 25
 5 5 l 25
 5 7 l 1
 7 7 l 25
 7 0 l 25
EndSplineSet
EndChar

StartChar: e
Encoding: 101 101 36
Width: 8
VWidth: 8
Flags: HW
LayerCount: 2
Fore
SplineSet
5 4 m 25
 2 4 l 1
 2 3 l 1
 5 3 l 25
 5 4 l 25
1 0 m 1
 1 1 l 25
 0 1 l 25
 0 4 l 25
 1 4 l 25
 1 5 l 1
 6 5 l 25
 6 4 l 25
 7 4 l 25
 7 2 l 25
 2 2 l 1
 2 1 l 1
 6 1 l 1
 6 0 l 5
 1 0 l 1
EndSplineSet
EndChar

StartChar: f
Encoding: 102 102 37
Width: 8
VWidth: 8
Flags: HW
LayerCount: 2
Fore
SplineSet
4 6 m 1
 4 6 l 1
 4 4 l 1
 5 4 l 25
 5 3 l 25
 4 3 l 25
 4 0 l 25
 2 0 l 25
 2 3 l 25
 1 3 l 25
 1 4 l 25
 2 4 l 25
 2 6 l 25
 3 6 l 25
 3 7 l 1
 6 7 l 25
 6 6 l 1
 5 6 l 1
 4 6 l 1
EndSplineSet
EndChar

StartChar: g
Encoding: 103 103 38
Width: 8
VWidth: 8
Flags: HW
LayerCount: 2
Fore
SplineSet
5 4 m 1
 2 4 l 25
 2 1 l 1
 5 1 l 25
 5 4 l 1
1 -2 m 5
 1 -1 l 1
 5 -1 l 1
 5 0 l 1
 1 0 l 1
 1 1 l 25
 0 1 l 25
 0 4 l 25
 1 4 l 25
 1 5 l 25
 7 5 l 1
 7 -1 l 1
 6 -1 l 1
 6 -2 l 1
 1 -2 l 5
EndSplineSet
EndChar

StartChar: h
Encoding: 104 104 39
Width: 8
VWidth: 8
Flags: HW
LayerCount: 2
Fore
SplineSet
0 7 m 25
 2 7 l 1
 2 5 l 5
 6 5 l 5
 6 4 l 5
 7 4 l 5
 7 0 l 1
 5 0 l 1
 5 4 l 29
 2 4 l 29
 2 0 l 1
 0 0 l 25
 0 7 l 25
EndSplineSet
EndChar

StartChar: i
Encoding: 105 105 40
Width: 8
VWidth: 8
Flags: HW
LayerCount: 2
Fore
SplineSet
5 6 m 1
 3 6 l 1
 3 7 l 1
 5 7 l 1
 5 6 l 1
3 0 m 1
 3 5 l 1
 5 5 l 5
 5 0 l 1
 3 0 l 1
EndSplineSet
EndChar

StartChar: j
Encoding: 106 106 41
Width: 8
VWidth: 8
Flags: HW
LayerCount: 2
Fore
SplineSet
3 6 m 25
 3 7 l 25
 5 7 l 25
 5 6 l 25
 3 6 l 25
1 -2 m 25
 1 -1 l 25
 3 -1 l 1
 3 5 l 25
 5 5 l 25
 5 -1 l 1
 4 -1 l 25
 4 -2 l 25
 1 -2 l 25
EndSplineSet
EndChar

StartChar: k
Encoding: 107 107 42
Width: 8
VWidth: 8
Flags: HW
LayerCount: 2
Fore
SplineSet
1 7 m 25
 1 0 l 25
 3 0 l 25
 3 2 l 25
 4 2 l 25
 4 1 l 25
 5 1 l 25
 5 0 l 25
 7 0 l 25
 7 1 l 25
 6 1 l 25
 6 2 l 25
 5 2 l 25
 5 3 l 25
 6 3 l 25
 6 4 l 25
 7 4 l 25
 7 5 l 25
 5 5 l 25
 5 4 l 25
 4 4 l 25
 4 3 l 25
 3 3 l 25
 3 7 l 25
 1 7 l 25
EndSplineSet
EndChar

StartChar: l
Encoding: 108 108 43
Width: 8
VWidth: 8
Flags: HW
LayerCount: 2
Fore
SplineSet
3 7 m 29
 5 7 l 25
 5 1 l 25
 6 1 l 25
 6 0 l 25
 4 0 l 25
 4 1 l 25
 3 1 l 25
 3 7 l 29
EndSplineSet
EndChar

StartChar: m
Encoding: 109 109 44
Width: 8
VWidth: 8
Flags: HW
LayerCount: 2
Fore
SplineSet
0 0 m 1
 0 5 l 25
 3 5 l 25
 3 4 l 25
 4 4 l 25
 4 5 l 25
 6 5 l 25
 6 4 l 25
 7 4 l 25
 7 0 l 25
 5 0 l 25
 5 3 l 25
 4 3 l 25
 4 0 l 1
 3 0 l 1
 3 3 l 1
 2 3 l 1
 2 0 l 5
 0 0 l 1
EndSplineSet
EndChar

StartChar: n
Encoding: 110 110 45
Width: 8
VWidth: 8
Flags: HW
LayerCount: 2
Fore
SplineSet
1 0 m 29
 1 5 l 29
 6 5 l 29
 6 4 l 29
 7 4 l 29
 7 0 l 29
 5 0 l 29
 5 4 l 29
 3 4 l 29
 3 0 l 29
 1 0 l 29
EndSplineSet
EndChar

StartChar: o
Encoding: 111 111 46
Width: 8
VWidth: 8
Flags: HW
LayerCount: 2
Fore
SplineSet
5 4 m 1
 2 4 l 25
 2 1 l 1
 5 1 l 1
 5 4 l 1
1 5 m 25
 6 5 l 1
 6 4 l 25
 7 4 l 25
 7 1 l 1
 6 1 l 25
 6 0 l 1
 1 0 l 25
 1 1 l 25
 0 1 l 1
 0 4 l 25
 1 4 l 25
 1 5 l 25
EndSplineSet
EndChar

StartChar: p
Encoding: 112 112 47
Width: 8
VWidth: 8
Flags: HW
LayerCount: 2
Fore
SplineSet
5 1 m 25
 5 4 l 1
 2 4 l 1
 2 1 l 25
 5 1 l 25
0 5 m 25
 6 5 l 25
 6 4 l 25
 7 4 l 1
 7 1 l 25
 6 1 l 25
 6 0 l 25
 2 0 l 25
 2 -2 l 1
 0 -2 l 25
 0 5 l 25
EndSplineSet
EndChar

StartChar: q
Encoding: 113 113 48
Width: 8
VWidth: 8
Flags: HW
LayerCount: 2
Fore
SplineSet
2 1 m 29
 5 1 l 29
 5 4 l 5
 2 4 l 5
 2 1 l 29
7 5 m 29
 7 -2 l 29
 5 -2 l 5
 5 0 l 29
 1 0 l 29
 1 1 l 29
 0 1 l 29
 0 4 l 5
 1 4 l 29
 1 5 l 29
 7 5 l 29
EndSplineSet
EndChar

StartChar: r
Encoding: 114 114 49
Width: 8
VWidth: 8
Flags: HW
LayerCount: 2
Fore
SplineSet
3 2 m 5
 2 2 l 1
 2 0 l 1
 0 0 l 25
 0 5 l 25
 2 5 l 25
 2 4 l 25
 3 4 l 25
 3 5 l 25
 6 5 l 25
 6 4 l 25
 4 4 l 25
 4 3 l 17
 3 3 l 5
 3 2 l 5
EndSplineSet
EndChar

StartChar: s
Encoding: 115 115 50
Width: 8
VWidth: 8
Flags: HW
LayerCount: 2
Fore
SplineSet
2 0 m 1
 2 1 l 1
 5 1 l 1
 5 2 l 1
 2 2 l 1
 2 3 l 25
 1 3 l 25
 1 4 l 25
 2 4 l 25
 2 5 l 1
 6 5 l 1
 6 4 l 5
 3 4 l 1
 3 3 l 1
 6 3 l 1
 6 2 l 25
 7 2 l 25
 7 1 l 25
 6 1 l 25
 6 0 l 1
 2 0 l 1
EndSplineSet
EndChar

StartChar: t
Encoding: 116 116 51
Width: 8
VWidth: 8
Flags: HW
LayerCount: 2
Fore
SplineSet
3 1 m 1
 3 5 l 1
 2 5 l 25
 2 6 l 25
 3 6 l 25
 3 7 l 1
 5 7 l 1
 5 6 l 1
 6 6 l 1
 6 5 l 1
 5 5 l 1
 5 1 l 1
 6 1 l 1
 6 0 l 1
 4 0 l 1
 4 1 l 1
 3 1 l 1
EndSplineSet
EndChar

StartChar: u
Encoding: 117 117 52
Width: 8
VWidth: 8
Flags: HW
LayerCount: 2
Fore
SplineSet
1 0 m 1
 1 1 l 25
 0 1 l 1
 0 5 l 25
 2 5 l 25
 2 1 l 1
 5 1 l 1
 5 5 l 25
 7 5 l 1
 7 0 l 1
 1 0 l 1
EndSplineSet
EndChar

StartChar: v
Encoding: 118 118 53
Width: 8
VWidth: 8
Flags: HW
LayerCount: 2
Fore
SplineSet
0 5 m 1
 2 5 l 1
 2 3 l 1
 3 3 l 1
 3 2 l 1
 4 2 l 1
 4 3 l 1
 5 3 l 1
 5 5 l 1
 7 5 l 1
 7 3 l 1
 6 3 l 25
 6 2 l 25
 5 2 l 25
 5 1 l 25
 4 1 l 25
 4 0 l 25
 3 0 l 25
 3 1 l 25
 2 1 l 25
 2 2 l 25
 1 2 l 25
 1 3 l 25
 0 3 l 1
 0 5 l 1
EndSplineSet
EndChar

StartChar: w
Encoding: 119 119 54
Width: 8
VWidth: 8
Flags: HW
LayerCount: 2
Fore
SplineSet
0 1 m 1
 0 5 l 29
 2 5 l 29
 2 2 l 1
 3 2 l 1
 3 5 l 29
 4 5 l 29
 4 2 l 1
 5 2 l 1
 5 5 l 29
 7 5 l 29
 7 1 l 1
 6 1 l 25
 6 0 l 25
 4 0 l 25
 4 1 l 25
 3 1 l 25
 3 0 l 25
 1 0 l 25
 1 1 l 25
 0 1 l 1
EndSplineSet
EndChar

StartChar: x
Encoding: 120 120 55
Width: 8
VWidth: 8
Flags: HW
LayerCount: 2
Fore
SplineSet
0 0 m 29
 0 1 l 25
 1 1 l 25
 1 2 l 25
 2 2 l 25
 2 3 l 25
 1 3 l 25
 1 4 l 25
 0 4 l 25
 0 5 l 25
 2 5 l 25
 2 4 l 25
 3 4 l 25
 3 3 l 25
 4 3 l 25
 4 4 l 25
 5 4 l 25
 5 5 l 25
 7 5 l 25
 7 4 l 25
 6 4 l 25
 6 3 l 25
 5 3 l 25
 5 2 l 25
 6 2 l 25
 6 1 l 25
 7 1 l 25
 7 0 l 25
 5 0 l 25
 5 1 l 25
 4 1 l 25
 4 2 l 25
 3 2 l 25
 3 1 l 25
 2 1 l 25
 2 0 l 25
 0 0 l 29
EndSplineSet
EndChar

StartChar: y
Encoding: 121 121 56
Width: 8
VWidth: 8
Flags: HW
LayerCount: 2
Fore
SplineSet
7 4 m 1
 7 -1 l 25
 6 -1 l 25
 6 -2 l 25
 1 -2 l 25
 1 -1 l 25
 5 -1 l 25
 5 0 l 25
 2 0 l 25
 2 1 l 25
 1 1 l 25
 1 4 l 25
 3 4 l 25
 3 1 l 25
 5 1 l 1
 5 4 l 29
 7 4 l 1
EndSplineSet
EndChar

StartChar: z
Encoding: 122 122 57
Width: 8
VWidth: 8
Flags: WO
HStem: 0 1<0 1 3 6> 4 1<0 3>
LayerCount: 2
Fore
SplineSet
6 3 m 25
 5 3 l 1
 5 2 l 1
 3 2 l 1
 3 1 l 1
 6 1 l 1
 6 0 l 25
 0 0 l 25
 0 1 l 25
 1 1 l 25
 1 2 l 25
 2 2 l 25
 2 3 l 25
 3 3 l 25
 3 4 l 25
 0 4 l 25
 0 5 l 25
 6 5 l 25
 6 3 l 25
EndSplineSet
EndChar

StartChar: braceleft
Encoding: 123 123 58
Width: 8
VWidth: 8
Flags: H
LayerCount: 2
Fore
SplineSet
5 7 m 29
 5 6 l 25
 4 6 l 25
 4 4 l 25
 3 4 l 25
 3 3 l 25
 4 3 l 25
 4 1 l 25
 5 1 l 25
 5 0 l 25
 3 0 l 25
 3 1 l 25
 2 1 l 25
 2 3 l 25
 1 3 l 25
 1 4 l 25
 2 4 l 25
 2 6 l 25
 3 6 l 25
 3 7 l 25
 5 7 l 29
EndSplineSet
Validated: 1
EndChar

StartChar: bar
Encoding: 124 124 59
Width: 8
VWidth: 8
Flags: H
LayerCount: 2
Fore
SplineSet
5 7 m 29
 5 0 l 25
 3 0 l 25
 3 7 l 25
 5 7 l 29
EndSplineSet
Validated: 1
EndChar

StartChar: braceright
Encoding: 125 125 60
Width: 8
VWidth: 8
Flags: H
LayerCount: 2
Fore
SplineSet
2 7 m 25
 4 7 l 25
 4 6 l 25
 5 6 l 25
 5 4 l 25
 6 4 l 25
 6 3 l 25
 5 3 l 1
 5 1 l 25
 4 1 l 1
 4 0 l 25
 2 0 l 25
 2 1 l 25
 3 1 l 25
 3 3 l 25
 4 3 l 25
 4 4 l 25
 3 4 l 25
 3 6 l 25
 2 6 l 25
 2 7 l 25
EndSplineSet
Validated: 1
EndChar

StartChar: asciitilde
Encoding: 126 126 61
Width: 8
VWidth: 8
Flags: H
LayerCount: 2
Fore
SplineSet
0 4 m 1
 0 5 l 1
 1 5 l 1
 1 6 l 1
 4 6 l 1
 4 5 l 1
 5 5 l 1
 5 6 l 1
 7 6 l 1
 7 5 l 1
 6 5 l 1
 6 4 l 1
 3 4 l 1
 3 5 l 1
 2 5 l 1
 2 4 l 1
 0 4 l 1
EndSplineSet
Validated: 1
EndChar

StartChar: at
Encoding: 64 64 62
Width: 8
VWidth: 8
Flags: H
LayerCount: 2
Fore
SplineSet
4 4 m 29
 3 4 l 25
 3 3 l 25
 4 3 l 25
 4 4 l 29
6 1 m 25
 6 0 l 25
 1 0 l 25
 1 1 l 25
 6 1 l 25
7 6 m 25
 7 2 l 25
 2 2 l 1
 2 5 l 25
 5 5 l 1
 5 3 l 25
 6 3 l 25
 6 6 l 25
 7 6 l 25
1 7 m 25
 6 7 l 25
 6 6 l 25
 1 6 l 25
 1 7 l 25
0 1 m 25
 0 6 l 25
 1 6 l 25
 1 1 l 25
 0 1 l 25
EndSplineSet
Validated: 5
EndChar

StartChar: question
Encoding: 63 63 63
Width: 8
VWidth: 8
Flags: H
LayerCount: 2
Fore
SplineSet
2 1 m 29
 4 1 l 25
 4 0 l 25
 2 0 l 25
 2 1 l 29
0 4 m 25
 0 6 l 25
 1 6 l 25
 1 7 l 25
 6 7 l 25
 6 6 l 25
 7 6 l 25
 7 4 l 25
 6 4 l 25
 6 3 l 25
 4 3 l 25
 4 2 l 25
 2 2 l 25
 2 3 l 25
 3 3 l 25
 3 4 l 25
 5 4 l 25
 5 6 l 25
 2 6 l 25
 2 4 l 25
 0 4 l 25
EndSplineSet
Validated: 1
EndChar

StartChar: greater
Encoding: 62 62 64
Width: 8
VWidth: 8
Flags: H
LayerCount: 2
Fore
SplineSet
1 7 m 29
 3 7 l 29
 3 6 l 29
 4 6 l 29
 4 5 l 29
 5 5 l 29
 5 4 l 29
 6 4 l 29
 6 3 l 29
 5 3 l 29
 5 2 l 29
 4 2 l 29
 4 1 l 29
 3 1 l 29
 3 0 l 5
 1 0 l 29
 1 1 l 5
 2 1 l 29
 2 2 l 29
 3 2 l 29
 3 3 l 29
 4 3 l 29
 4 4 l 29
 3 4 l 29
 3 5 l 29
 2 5 l 29
 2 6 l 29
 1 6 l 29
 1 7 l 29
EndSplineSet
Validated: 1
EndChar

StartChar: equal
Encoding: 61 61 65
Width: 8
VWidth: 8
Flags: H
LayerCount: 2
Fore
SplineSet
1 3 m 25
 6 3 l 1
 6 2 l 1
 1 2 l 25
 1 3 l 25
1 5 m 25
 6 5 l 1
 6 4 l 1
 1 4 l 25
 1 5 l 25
EndSplineSet
Validated: 1
EndChar

StartChar: less
Encoding: 60 60 66
Width: 8
VWidth: 8
Flags: HW
LayerCount: 2
Fore
SplineSet
6 7 m 29
 4 7 l 29
 4 6 l 29
 3 6 l 29
 3 5 l 29
 2 5 l 29
 2 4 l 29
 1 4 l 29
 1 3 l 29
 2 3 l 29
 2 2 l 29
 3 2 l 29
 3 1 l 29
 4 1 l 29
 4 0 l 5
 6 0 l 29
 6 1 l 5
 5 1 l 29
 5 2 l 29
 4 2 l 29
 4 3 l 29
 3 3 l 29
 3 4 l 29
 4 4 l 29
 4 5 l 29
 5 5 l 29
 5 6 l 29
 6 6 l 29
 6 7 l 29
EndSplineSet
Validated: 1
EndChar

StartChar: semicolon
Encoding: 59 59 67
Width: 8
VWidth: 8
Flags: H
LayerCount: 2
Fore
SplineSet
3 3 m 1
 5 3 l 1
 5 1 l 1
 4 1 l 1
 4 0 l 1
 2 0 l 1
 2 1 l 1
 3 1 l 1
 3 3 l 1
3 6 m 1
 5 6 l 1
 5 4 l 1
 3 4 l 1
 3 6 l 1
EndSplineSet
Validated: 1
EndChar

StartChar: colon
Encoding: 58 58 68
Width: 8
VWidth: 8
Flags: H
LayerCount: 2
Fore
SplineSet
3 3 m 1
 5 3 l 1
 5 1 l 5
 3 1 l 1
 3 3 l 1
3 6 m 1
 5 6 l 1
 5 4 l 1
 3 4 l 1
 3 6 l 1
EndSplineSet
Validated: 1
EndChar

StartChar: nine
Encoding: 57 57 69
Width: 8
VWidth: 8
Flags: H
LayerCount: 2
Fore
SplineSet
5 6 m 29
 2 6 l 25
 2 4 l 25
 5 4 l 25
 5 6 l 29
0 6 m 25
 1 6 l 25
 1 7 l 25
 6 7 l 25
 6 6 l 25
 7 6 l 25
 7 2 l 25
 6 2 l 25
 6 1 l 25
 5 1 l 25
 5 0 l 25
 1 0 l 25
 1 1 l 25
 4 1 l 25
 4 2 l 25
 5 2 l 25
 5 3 l 25
 1 3 l 25
 1 4 l 25
 0 4 l 25
 0 6 l 25
EndSplineSet
Validated: 1
EndChar

StartChar: eight
Encoding: 56 56 70
Width: 8
VWidth: 8
Flags: H
LayerCount: 2
Fore
SplineSet
2 3 m 29
 2 1 l 25
 5 1 l 25
 5 3 l 25
 2 3 l 29
2 6 m 25
 2 4 l 25
 5 4 l 25
 5 6 l 25
 2 6 l 25
1 7 m 25
 6 7 l 25
 6 6 l 25
 7 6 l 25
 7 4 l 25
 6 4 l 25
 6 3 l 25
 7 3 l 25
 7 1 l 25
 6 1 l 25
 6 0 l 25
 1 0 l 25
 1 1 l 25
 0 1 l 25
 0 3 l 25
 1 3 l 25
 1 4 l 25
 0 4 l 25
 0 6 l 25
 1 6 l 25
 1 7 l 25
EndSplineSet
Validated: 1
EndChar

StartChar: seven
Encoding: 55 55 71
Width: 8
VWidth: 8
Flags: H
LayerCount: 2
Fore
SplineSet
0 7 m 1
 7 7 l 25
 7 5 l 25
 6 5 l 25
 6 4 l 25
 5 4 l 25
 5 3 l 25
 4 3 l 25
 4 0 l 25
 2 0 l 25
 2 3 l 25
 3 3 l 25
 3 4 l 25
 4 4 l 25
 4 5 l 25
 5 5 l 25
 5 6 l 1
 2 6 l 1
 2 5 l 1
 0 5 l 5
 0 7 l 1
EndSplineSet
Validated: 1
EndChar

StartChar: six
Encoding: 54 54 72
Width: 8
VWidth: 8
Flags: H
LayerCount: 2
Fore
SplineSet
2 3 m 29
 2 1 l 25
 5 1 l 25
 5 3 l 25
 2 3 l 29
6 7 m 25
 6 6 l 25
 3 6 l 25
 3 5 l 25
 2 5 l 25
 2 4 l 25
 6 4 l 25
 6 3 l 25
 7 3 l 25
 7 1 l 25
 6 1 l 25
 6 0 l 1
 1 0 l 1
 1 1 l 1
 0 1 l 1
 0 5 l 25
 1 5 l 25
 1 6 l 25
 2 6 l 25
 2 7 l 25
 6 7 l 25
EndSplineSet
Validated: 1
EndChar

StartChar: five
Encoding: 53 53 73
Width: 8
VWidth: 8
Flags: H
LayerCount: 2
Fore
SplineSet
6 7 m 29
 6 6 l 25
 2 6 l 25
 2 5 l 25
 6 5 l 25
 6 4 l 25
 7 4 l 25
 7 1 l 25
 6 1 l 25
 6 0 l 25
 1 0 l 25
 1 1 l 25
 0 1 l 25
 0 2 l 25
 2 2 l 25
 2 1 l 25
 5 1 l 25
 5 4 l 25
 0 4 l 25
 0 7 l 25
 6 7 l 29
EndSplineSet
Validated: 1
EndChar

StartChar: four
Encoding: 52 52 74
Width: 8
VWidth: 8
Flags: H
LayerCount: 2
Fore
SplineSet
3 5 m 25
 3 4 l 25
 2 4 l 25
 2 3 l 25
 4 3 l 25
 4 5 l 25
 3 5 l 25
6 7 m 25
 6 3 l 25
 7 3 l 25
 7 2 l 25
 6 2 l 25
 6 0 l 1
 4 0 l 29
 4 2 l 1
 0 2 l 25
 0 4 l 25
 1 4 l 25
 1 5 l 25
 2 5 l 25
 2 6 l 25
 3 6 l 25
 3 7 l 25
 6 7 l 25
EndSplineSet
Validated: 1
EndChar

StartChar: three
Encoding: 51 51 75
Width: 8
VWidth: 8
Flags: H
LayerCount: 2
Fore
SplineSet
1 7 m 1
 7 7 l 25
 7 6 l 25
 6 6 l 25
 6 5 l 25
 5 5 l 25
 5 4 l 25
 6 4 l 25
 6 3 l 25
 7 3 l 25
 7 1 l 25
 6 1 l 25
 6 0 l 25
 1 0 l 25
 1 1 l 25
 0 1 l 25
 0 2 l 25
 2 2 l 25
 2 1 l 25
 5 1 l 25
 5 3 l 25
 2 3 l 25
 2 4 l 25
 3 4 l 25
 3 5 l 25
 4 5 l 25
 4 6 l 1
 1 6 l 29
 1 7 l 1
EndSplineSet
Validated: 1
EndChar

StartChar: two
Encoding: 50 50 76
Width: 8
VWidth: 8
Flags: H
LayerCount: 2
Fore
SplineSet
0 6 m 29
 1 6 l 25
 1 7 l 25
 6 7 l 25
 6 6 l 25
 7 6 l 25
 7 4 l 25
 6 4 l 25
 6 3 l 25
 5 3 l 25
 5 2 l 25
 3 2 l 25
 3 1 l 25
 7 1 l 25
 7 0 l 25
 0 0 l 25
 0 2 l 25
 1 2 l 25
 1 3 l 25
 2 3 l 25
 2 4 l 25
 4 4 l 25
 4 5 l 25
 5 5 l 25
 5 6 l 25
 2 6 l 25
 2 5 l 25
 0 5 l 25
 0 6 l 29
EndSplineSet
Validated: 1
EndChar

StartChar: one
Encoding: 49 49 77
Width: 8
VWidth: 8
Flags: H
LayerCount: 2
Fore
SplineSet
1 0 m 29
 1 1 l 25
 3 1 l 25
 3 5 l 25
 2 5 l 25
 2 6 l 25
 3 6 l 25
 3 7 l 25
 5 7 l 25
 5 1 l 25
 7 1 l 25
 7 0 l 25
 1 0 l 29
EndSplineSet
Validated: 1
EndChar

StartChar: zero
Encoding: 48 48 78
Width: 8
VWidth: 8
Flags: H
LayerCount: 2
Fore
SplineSet
5 0 m 29
 2 0 l 25
 2 1 l 25
 1 1 l 25
 1 2 l 25
 0 2 l 25
 0 5 l 25
 1 5 l 25
 1 6 l 25
 2 6 l 25
 2 2 l 25
 3 2 l 25
 3 1 l 25
 5 1 l 25
 5 0 l 29
2 7 m 25
 5 7 l 25
 5 6 l 25
 6 6 l 25
 6 5 l 25
 7 5 l 25
 7 2 l 25
 6 2 l 25
 6 1 l 25
 5 1 l 25
 5 5 l 25
 4 5 l 25
 4 6 l 25
 2 6 l 25
 2 7 l 25
EndSplineSet
Validated: 5
EndChar

StartChar: slash
Encoding: 47 47 79
Width: 8
VWidth: 8
Flags: H
LayerCount: 2
Fore
SplineSet
7 7 m 29
 2 0 l 25
 0 0 l 25
 5 7 l 25
 7 7 l 29
EndSplineSet
Validated: 1
EndChar

StartChar: period
Encoding: 46 46 80
Width: 8
VWidth: 8
Flags: H
LayerCount: 2
Fore
SplineSet
3 0 m 29
 3 2 l 25
 5 2 l 25
 5 0 l 25
 3 0 l 29
EndSplineSet
Validated: 1
EndChar

StartChar: hyphen
Encoding: 45 45 81
Width: 8
VWidth: 8
Flags: H
LayerCount: 2
Fore
SplineSet
1 3 m 1
 1 4 l 1
 6 4 l 1
 6 3 l 5
 1 3 l 1
EndSplineSet
Validated: 1
EndChar

StartChar: comma
Encoding: 44 44 82
Width: 8
VWidth: 8
Flags: H
LayerCount: 2
Fore
SplineSet
3 0 m 29
 3 2 l 25
 5 2 l 25
 5 0 l 25
 4 0 l 25
 4 -1 l 25
 2 -1 l 25
 2 0 l 25
 3 0 l 29
EndSplineSet
Validated: 1
EndChar

StartChar: plus
Encoding: 43 43 83
Width: 8
VWidth: 8
Flags: H
LayerCount: 2
Fore
SplineSet
3 6 m 25
 4 6 l 25
 4 4 l 25
 6 4 l 25
 6 3 l 25
 4 3 l 1
 4 1 l 5
 3 1 l 1
 3 3 l 1
 1 3 l 25
 1 4 l 25
 3 4 l 25
 3 6 l 25
EndSplineSet
Validated: 1
EndChar

StartChar: asterisk
Encoding: 42 42 84
Width: 8
VWidth: 8
Flags: HW
LayerCount: 2
Fore
SplineSet
0 7 m 29
 1 7 l 25
 1 6 l 25
 0 6 l 25
 0 7 l 29
1 0 m 25
 0 0 l 25
 0 1 l 25
 1 1 l 25
 1 0 l 25
7 1 m 25
 7 0 l 25
 6 0 l 25
 6 1 l 25
 7 1 l 25
6 7 m 25
 7 7 l 25
 7 6 l 25
 6 6 l 25
 6 7 l 25
5 6 m 25
 6 6 l 25
 6 5 l 25
 5 5 l 25
 5 6 l 25
5 1 m 25
 5 2 l 25
 6 2 l 25
 6 1 l 25
 5 1 l 25
1 2 m 25
 2 2 l 25
 2 1 l 25
 1 1 l 25
 1 2 l 25
1 6 m 25
 2 6 l 25
 2 5 l 25
 1 5 l 25
 1 6 l 25
3 7 m 25
 4 7 l 1
 4 5 l 25
 5 5 l 25
 5 4 l 25
 7 4 l 25
 7 3 l 25
 5 3 l 25
 5 2 l 25
 4 2 l 25
 4 0 l 1
 3 0 l 1
 3 2 l 25
 2 2 l 1
 2 3 l 25
 0 3 l 25
 0 4 l 25
 2 4 l 25
 2 5 l 25
 3 5 l 25
 3 7 l 25
EndSplineSet
Validated: 5
EndChar

StartChar: parenright
Encoding: 41 41 85
Width: 8
VWidth: 8
Flags: H
LayerCount: 2
Fore
SplineSet
2 7 m 29
 4 7 l 29
 4 6 l 29
 5 6 l 29
 5 5 l 29
 6 5 l 29
 6 2 l 29
 5 2 l 29
 5 1 l 29
 4 1 l 29
 4 0 l 5
 2 0 l 29
 2 1 l 5
 3 1 l 29
 3 2 l 29
 4 2 l 29
 4 5 l 29
 3 5 l 29
 3 6 l 29
 2 6 l 29
 2 7 l 29
EndSplineSet
Validated: 1
EndChar

StartChar: parenleft
Encoding: 40 40 86
Width: 8
VWidth: 8
Flags: HW
LayerCount: 2
Fore
SplineSet
6 7 m 29
 6 6 l 29
 5 6 l 29
 5 5 l 29
 4 5 l 29
 4 2 l 29
 5 2 l 29
 5 1 l 29
 6 1 l 5
 6 0 l 29
 4 0 l 5
 4 1 l 29
 3 1 l 29
 3 2 l 29
 2 2 l 29
 2 5 l 29
 3 5 l 29
 3 6 l 29
 4 6 l 29
 4 7 l 29
 6 7 l 29
EndSplineSet
EndChar

StartChar: quotesingle
Encoding: 39 39 87
Width: 8
VWidth: 8
Flags: H
LayerCount: 2
Fore
SplineSet
3 4 m 29
 4 4 l 29
 4 3 l 29
 3 3 l 29
 3 4 l 29
3 7 m 29
 5 7 l 5
 5 4 l 29
 4 4 l 5
 4 5 l 29
 3 5 l 29
 3 7 l 29
EndSplineSet
Validated: 5
EndChar

StartChar: ampersand
Encoding: 38 38 88
Width: 8
VWidth: 8
Flags: H
LayerCount: 2
Fore
SplineSet
7 1 m 29
 7 0 l 25
 6 0 l 25
 6 1 l 25
 7 1 l 29
6 3 m 25
 7 3 l 25
 7 2 l 25
 6 2 l 25
 6 3 l 25
5 6 m 25
 5 4 l 25
 4 4 l 25
 4 6 l 25
 5 6 l 25
2 7 m 25
 4 7 l 25
 4 6 l 25
 2 6 l 25
 2 7 l 25
1 0 m 25
 1 1 l 25
 4 1 l 25
 4 2 l 25
 3 2 l 25
 3 3 l 25
 1 3 l 25
 1 6 l 25
 2 6 l 25
 2 5 l 25
 3 5 l 25
 3 4 l 25
 4 4 l 25
 4 3 l 25
 5 3 l 25
 5 2 l 25
 6 2 l 25
 6 1 l 25
 5 1 l 25
 5 0 l 25
 1 0 l 25
0 1 m 25
 0 3 l 25
 1 3 l 25
 1 1 l 25
 0 1 l 25
EndSplineSet
Validated: 5
EndChar

StartChar: percent
Encoding: 37 37 89
Width: 8
VWidth: 8
Flags: H
LayerCount: 2
Fore
SplineSet
0 1 m 25
 1 1 l 29
 1 0 l 25
 0 0 l 25
 0 1 l 25
1 2 m 25
 2 2 l 25
 2 1 l 25
 1 1 l 25
 1 2 l 25
2 3 m 25
 3 3 l 25
 3 2 l 25
 2 2 l 25
 2 3 l 25
3 4 m 25
 4 4 l 25
 4 3 l 25
 3 3 l 25
 3 4 l 25
4 5 m 25
 5 5 l 25
 5 4 l 25
 4 4 l 25
 4 5 l 25
5 6 m 25
 6 6 l 25
 6 5 l 25
 5 5 l 25
 5 6 l 25
6 7 m 25
 7 7 l 25
 7 6 l 25
 6 6 l 25
 6 7 l 25
4 2 m 25
 5 2 l 25
 5 1 l 25
 4 1 l 25
 4 2 l 25
6 0 m 25
 5 0 l 25
 5 1 l 25
 6 1 l 25
 6 0 l 25
7 2 m 25
 7 1 l 25
 6 1 l 25
 6 2 l 25
 7 2 l 25
5 3 m 25
 6 3 l 25
 6 2 l 25
 5 2 l 25
 5 3 l 25
0 6 m 25
 1 6 l 25
 1 5 l 25
 0 5 l 25
 0 6 l 25
2 4 m 25
 1 4 l 25
 1 5 l 25
 2 5 l 25
 2 4 l 25
3 6 m 25
 3 5 l 25
 2 5 l 25
 2 6 l 25
 3 6 l 25
1 7 m 25
 2 7 l 25
 2 6 l 25
 1 6 l 25
 1 7 l 25
EndSplineSet
Validated: 5
EndChar

StartChar: dollar
Encoding: 36 36 90
Width: 8
VWidth: 8
Flags: H
LayerCount: 2
Fore
SplineSet
5 3 m 29
 4 3 l 25
 4 2 l 25
 5 2 l 25
 5 3 l 29
3 5 m 25
 2 5 l 25
 2 4 l 25
 3 4 l 25
 3 5 l 25
4 7 m 25
 4 6 l 25
 6 6 l 25
 6 5 l 25
 4 5 l 25
 4 4 l 25
 6 4 l 25
 6 3 l 25
 7 3 l 25
 7 2 l 25
 6 2 l 25
 6 1 l 25
 4 1 l 25
 4 0 l 25
 3 0 l 25
 3 1 l 25
 0 1 l 25
 0 2 l 25
 3 2 l 25
 3 3 l 25
 1 3 l 25
 1 4 l 25
 0 4 l 25
 0 5 l 25
 1 5 l 25
 1 6 l 25
 3 6 l 25
 3 7 l 25
 4 7 l 25
EndSplineSet
Validated: 1
EndChar

StartChar: numbersign
Encoding: 35 35 91
Width: 8
VWidth: 8
Flags: H
LayerCount: 2
Fore
SplineSet
4 4 m 29
 3 4 l 25
 3 3 l 25
 4 3 l 25
 4 4 l 29
1 7 m 25
 3 7 l 25
 3 5 l 25
 4 5 l 25
 4 7 l 25
 6 7 l 25
 6 5 l 25
 7 5 l 25
 7 4 l 25
 6 4 l 25
 6 3 l 25
 7 3 l 25
 7 2 l 25
 6 2 l 25
 6 0 l 25
 4 0 l 25
 4 2 l 25
 3 2 l 25
 3 0 l 25
 1 0 l 25
 1 2 l 25
 0 2 l 25
 0 3 l 25
 1 3 l 25
 1 4 l 25
 0 4 l 25
 0 5 l 25
 1 5 l 25
 1 7 l 25
EndSplineSet
Validated: 1
EndChar

StartChar: quotedbl
Encoding: 34 34 92
Width: 8
VWidth: 8
Flags: HW
LayerCount: 2
Fore
SplineSet
4 4 m 25
 5 4 l 25
 5 3 l 25
 4 3 l 25
 4 4 l 25
4 7 m 25
 6 7 l 1
 6 4 l 25
 5 4 l 1
 5 5 l 25
 4 5 l 25
 4 7 l 25
1 4 m 25
 2 4 l 25
 2 3 l 25
 1 3 l 25
 1 4 l 25
1 7 m 25
 3 7 l 1
 3 4 l 25
 2 4 l 1
 2 5 l 25
 1 5 l 25
 1 7 l 25
EndSplineSet
Validated: 5
EndChar

StartChar: exclam
Encoding: 33 33 93
Width: 8
VWidth: 8
Flags: H
LayerCount: 2
Fore
SplineSet
3 1 m 29
 5 1 l 25
 5 0 l 25
 3 0 l 25
 3 1 l 29
3 7 m 25
 5 7 l 25
 5 2 l 25
 3 2 l 25
 3 7 l 25
EndSplineSet
Validated: 1
EndChar
